<svg xmlns="http://www.w3.org/2000/svg" viewBox="0 0 1200 800" width="1200" height="800"><defs></defs><rect x="0" y="0" width="60" height="60" fill="#a16207"/><rect x="0" y="60" width="60" height="60" fill="#d6b86a"/><rect x="0" y="120" width="60" height="60" fill="#a16207"/><rect x="0" y="180" width="60" height="60" fill="#d6b86a"/><rect x="0" y="240" width="60" height="60" fill="#a16207"/><rect x="0" y="300" width="60" height="60" fill="#d6b86a"/><rect x="0" y="360" width="60" height="60" fill="#a16207"/><rect x="0" y="420" width="60" height="60" fill="#d6b86a"/><rect x="0" y="480" width="60" height="60" fill="#a16207"/><rect x="0" y="540" width="60" height="60" fill="#d6b86a"/><rect x="0" y="600" width="60" height="60" fill="#a16207"/><rect x="0" y="660" width="60" height="60" fill="#d6b86a"/><rect x="0" y="720" width="60" height="60" fill="#a16207"/><rect x="0" y="780" width="60" height="60" fill="#d6b86a"/><rect x="60" y="0" width="60" height="60" fill="#d6b86a"/><rect x="60" y="60" width="60" height="60" fill="#a16207"/><rect x="60" y="120" width="60" height="60" fill="#d6b86a"/><rect x="60" y="180" width="60" height="60" fill="#a16207"/><rect x="60" y="240" width="60" height="60" fill="#d6b86a"/><rect x="60" y="300" width="60" height="60" fill="#a16207"/><rect x="60" y="360" width="60" height="60" fill="#d6b86a"/><rect x="60" y="420" width="60" height="60" fill="#a16207"/><rect x="60" y="480" width="60" height="60" fill="#d6b86a"/><rect x="60" y="540" width="60" height="60" fill="#a16207"/><rect x="60" y="600" width="60" height="60" fill="#d6b86a"/><rect x="60" y="660" width="60" height="60" fill="#a16207"/><rect x="60" y="720" width="60" height="60" fill="#d6b86a"/><rect x="60" y="780" width="60" height="60" fill="#a16207"/><rect x="120" y="0" width="60" height="60" fill="#a16207"/><rect x="120" y="60" width="60" height="60" fill="#d6b86a"/><rect x="120" y="120" width="60" height="60" fill="#a16207"/><rect x="120" y="180" width="60" height="60" fill="#d6b86a"/><rect x="120" y="240" width="60" height="60" fill="#a16207"/><rect x="120" y="300" width="60" height="60" fill="#d6b86a"/><rect x="120" y="360" width="60" height="60" fill="#a16207"/><rect x="120" y="420" width="60" height="60" fill="#d6b86a"/><rect x="120" y="480" width="60" height="60" fill="#a16207"/><rect x="120" y="540" width="60" height="60" fill="#d6b86a"/><rect x="120" y="600" width="60" height="60" fill="#a16207"/><rect x="120" y="660" width="60" height="60" fill="#d6b86a"/><rect x="120" y="720" width="60" height="60" fill="#a16207"/><rect x="120" y="780" width="60" height="60" fill="#d6b86a"/><rect x="180" y="0" width="60" height="60" fill="#d6b86a"/><rect x="180" y="60" width="60" height="60" fill="#a16207"/><rect x="180" y="120" width="60" height="60" fill="#d6b86a"/><rect x="180" y="180" width="60" height="60" fill="#a16207"/><rect x="180" y="240" width="60" height="60" fill="#d6b86a"/><rect x="180" y="300" width="60" height="60" fill="#a16207"/><rect x="180" y="360" width="60" height="60" fill="#d6b86a"/><rect x="180" y="420" width="60" height="60" fill="#a16207"/><rect x="180" y="480" width="60" height="60" fill="#d6b86a"/><rect x="180" y="540" width="60" height="60" fill="#a16207"/><rect x="180" y="600" width="60" height="60" fill="#d6b86a"/><rect x="180" y="660" width="60" height="60" fill="#a16207"/><rect x="180" y="720" width="60" height="60" fill="#d6b86a"/><rect x="180" y="780" width="60" height="60" fill="#a16207"/><rect x="240" y="0" width="60" height="60" fill="#a16207"/><rect x="240" y="60" width="60" height="60" fill="#d6b86a"/><rect x="240" y="120" width="60" height="60" fill="#a16207"/><rect x="240" y="180" width="60" height="60" fill="#d6b86a"/><rect x="240" y="240" width="60" height="60" fill="#a16207"/><rect x="240" y="300" width="60" height="60" fill="#d6b86a"/><rect x="240" y="360" width="60" height="60" fill="#a16207"/><rect x="240" y="420" width="60" height="60" fill="#d6b86a"/><rect x="240" y="480" width="60" height="60" fill="#a16207"/><rect x="240" y="540" width="60" height="60" fill="#d6b86a"/><rect x="240" y="600" width="60" height="60" fill="#a16207"/><rect x="240" y="660" width="60" height="60" fill="#d6b86a"/><rect x="240" y="720" width="60" height="60" fill="#a16207"/><rect x="240" y="780" width="60" height="60" fill="#d6b86a"/><rect x="300" y="0" width="60" height="60" fill="#d6b86a"/><rect x="300" y="60" width="60" height="60" fill="#a16207"/><rect x="300" y="120" width="60" height="60" fill="#d6b86a"/><rect x="300" y="180" width="60" height="60" fill="#a16207"/><rect x="300" y="240" width="60" height="60" fill="#d6b86a"/><rect x="300" y="300" width="60" height="60" fill="#a16207"/><rect x="300" y="360" width="60" height="60" fill="#d6b86a"/><rect x="300" y="420" width="60" height="60" fill="#a16207"/><rect x="300" y="480" width="60" height="60" fill="#d6b86a"/><rect x="300" y="540" width="60" height="60" fill="#a16207"/><rect x="300" y="600" width="60" height="60" fill="#d6b86a"/><rect x="300" y="660" width="60" height="60" fill="#a16207"/><rect x="300" y="720" width="60" height="60" fill="#d6b86a"/><rect x="300" y="780" width="60" height="60" fill="#a16207"/><rect x="360" y="0" width="60" height="60" fill="#a16207"/><rect x="360" y="60" width="60" height="60" fill="#d6b86a"/><rect x="360" y="120" width="60" height="60" fill="#a16207"/><rect x="360" y="180" width="60" height="60" fill="#d6b86a"/><rect x="360" y="240" width="60" height="60" fill="#a16207"/><rect x="360" y="300" width="60" height="60" fill="#d6b86a"/><rect x="360" y="360" width="60" height="60" fill="#a16207"/><rect x="360" y="420" width="60" height="60" fill="#d6b86a"/><rect x="360" y="480" width="60" height="60" fill="#a16207"/><rect x="360" y="540" width="60" height="60" fill="#d6b86a"/><rect x="360" y="600" width="60" height="60" fill="#a16207"/><rect x="360" y="660" width="60" height="60" fill="#d6b86a"/><rect x="360" y="720" width="60" height="60" fill="#a16207"/><rect x="360" y="780" width="60" height="60" fill="#d6b86a"/><rect x="420" y="0" width="60" height="60" fill="#d6b86a"/><rect x="420" y="60" width="60" height="60" fill="#a16207"/><rect x="420" y="120" width="60" height="60" fill="#d6b86a"/><rect x="420" y="180" width="60" height="60" fill="#a16207"/><rect x="420" y="240" width="60" height="60" fill="#d6b86a"/><rect x="420" y="300" width="60" height="60" fill="#a16207"/><rect x="420" y="360" width="60" height="60" fill="#d6b86a"/><rect x="420" y="420" width="60" height="60" fill="#a16207"/><rect x="420" y="480" width="60" height="60" fill="#d6b86a"/><rect x="420" y="540" width="60" height="60" fill="#a16207"/><rect x="420" y="600" width="60" height="60" fill="#d6b86a"/><rect x="420" y="660" width="60" height="60" fill="#a16207"/><rect x="420" y="720" width="60" height="60" fill="#d6b86a"/><rect x="420" y="780" width="60" height="60" fill="#a16207"/><rect x="480" y="0" width="60" height="60" fill="#a16207"/><rect x="480" y="60" width="60" height="60" fill="#d6b86a"/><rect x="480" y="120" width="60" height="60" fill="#a16207"/><rect x="480" y="180" width="60" height="60" fill="#d6b86a"/><rect x="480" y="240" width="60" height="60" fill="#a16207"/><rect x="480" y="300" width="60" height="60" fill="#d6b86a"/><rect x="480" y="360" width="60" height="60" fill="#a16207"/><rect x="480" y="420" width="60" height="60" fill="#d6b86a"/><rect x="480" y="480" width="60" height="60" fill="#a16207"/><rect x="480" y="540" width="60" height="60" fill="#d6b86a"/><rect x="480" y="600" width="60" height="60" fill="#a16207"/><rect x="480" y="660" width="60" height="60" fill="#d6b86a"/><rect x="480" y="720" width="60" height="60" fill="#a16207"/><rect x="480" y="780" width="60" height="60" fill="#d6b86a"/><rect x="540" y="0" width="60" height="60" fill="#d6b86a"/><rect x="540" y="60" width="60" height="60" fill="#a16207"/><rect x="540" y="120" width="60" height="60" fill="#d6b86a"/><rect x="540" y="180" width="60" height="60" fill="#a16207"/><rect x="540" y="240" width="60" height="60" fill="#d6b86a"/><rect x="540" y="300" width="60" height="60" fill="#a16207"/><rect x="540" y="360" width="60" height="60" fill="#d6b86a"/><rect x="540" y="420" width="60" height="60" fill="#a16207"/><rect x="540" y="480" width="60" height="60" fill="#d6b86a"/><rect x="540" y="540" width="60" height="60" fill="#a16207"/><rect x="540" y="600" width="60" height="60" fill="#d6b86a"/><rect x="540" y="660" width="60" height="60" fill="#a16207"/><rect x="540" y="720" width="60" height="60" fill="#d6b86a"/><rect x="540" y="780" width="60" height="60" fill="#a16207"/><rect x="600" y="0" width="60" height="60" fill="#a16207"/><rect x="600" y="60" width="60" height="60" fill="#d6b86a"/><rect x="600" y="120" width="60" height="60" fill="#a16207"/><rect x="600" y="180" width="60" height="60" fill="#d6b86a"/><rect x="600" y="240" width="60" height="60" fill="#a16207"/><rect x="600" y="300" width="60" height="60" fill="#d6b86a"/><rect x="600" y="360" width="60" height="60" fill="#a16207"/><rect x="600" y="420" width="60" height="60" fill="#d6b86a"/><rect x="600" y="480" width="60" height="60" fill="#a16207"/><rect x="600" y="540" width="60" height="60" fill="#d6b86a"/><rect x="600" y="600" width="60" height="60" fill="#a16207"/><rect x="600" y="660" width="60" height="60" fill="#d6b86a"/><rect x="600" y="720" width="60" height="60" fill="#a16207"/><rect x="600" y="780" width="60" height="60" fill="#d6b86a"/><rect x="660" y="0" width="60" height="60" fill="#d6b86a"/><rect x="660" y="60" width="60" height="60" fill="#a16207"/><rect x="660" y="120" width="60" height="60" fill="#d6b86a"/><rect x="660" y="180" width="60" height="60" fill="#a16207"/><rect x="660" y="240" width="60" height="60" fill="#d6b86a"/><rect x="660" y="300" width="60" height="60" fill="#a16207"/><rect x="660" y="360" width="60" height="60" fill="#d6b86a"/><rect x="660" y="420" width="60" height="60" fill="#a16207"/><rect x="660" y="480" width="60" height="60" fill="#d6b86a"/><rect x="660" y="540" width="60" height="60" fill="#a16207"/><rect x="660" y="600" width="60" height="60" fill="#d6b86a"/><rect x="660" y="660" width="60" height="60" fill="#a16207"/><rect x="660" y="720" width="60" height="60" fill="#d6b86a"/><rect x="660" y="780" width="60" height="60" fill="#a16207"/><rect x="720" y="0" width="60" height="60" fill="#a16207"/><rect x="720" y="60" width="60" height="60" fill="#d6b86a"/><rect x="720" y="120" width="60" height="60" fill="#a16207"/><rect x="720" y="180" width="60" height="60" fill="#d6b86a"/><rect x="720" y="240" width="60" height="60" fill="#a16207"/><rect x="720" y="300" width="60" height="60" fill="#d6b86a"/><rect x="720" y="360" width="60" height="60" fill="#a16207"/><rect x="720" y="420" width="60" height="60" fill="#d6b86a"/><rect x="720" y="480" width="60" height="60" fill="#a16207"/><rect x="720" y="540" width="60" height="60" fill="#d6b86a"/><rect x="720" y="600" width="60" height="60" fill="#a16207"/><rect x="720" y="660" width="60" height="60" fill="#d6b86a"/><rect x="720" y="720" width="60" height="60" fill="#a16207"/><rect x="720" y="780" width="60" height="60" fill="#d6b86a"/><rect x="780" y="0" width="60" height="60" fill="#d6b86a"/><rect x="780" y="60" width="60" height="60" fill="#a16207"/><rect x="780" y="120" width="60" height="60" fill="#d6b86a"/><rect x="780" y="180" width="60" height="60" fill="#a16207"/><rect x="780" y="240" width="60" height="60" fill="#d6b86a"/><rect x="780" y="300" width="60" height="60" fill="#a16207"/><rect x="780" y="360" width="60" height="60" fill="#d6b86a"/><rect x="780" y="420" width="60" height="60" fill="#a16207"/><rect x="780" y="480" width="60" height="60" fill="#d6b86a"/><rect x="780" y="540" width="60" height="60" fill="#a16207"/><rect x="780" y="600" width="60" height="60" fill="#d6b86a"/><rect x="780" y="660" width="60" height="60" fill="#a16207"/><rect x="780" y="720" width="60" height="60" fill="#d6b86a"/><rect x="780" y="780" width="60" height="60" fill="#a16207"/><rect x="840" y="0" width="60" height="60" fill="#a16207"/><rect x="840" y="60" width="60" height="60" fill="#d6b86a"/><rect x="840" y="120" width="60" height="60" fill="#a16207"/><rect x="840" y="180" width="60" height="60" fill="#d6b86a"/><rect x="840" y="240" width="60" height="60" fill="#a16207"/><rect x="840" y="300" width="60" height="60" fill="#d6b86a"/><rect x="840" y="360" width="60" height="60" fill="#a16207"/><rect x="840" y="420" width="60" height="60" fill="#d6b86a"/><rect x="840" y="480" width="60" height="60" fill="#a16207"/><rect x="840" y="540" width="60" height="60" fill="#d6b86a"/><rect x="840" y="600" width="60" height="60" fill="#a16207"/><rect x="840" y="660" width="60" height="60" fill="#d6b86a"/><rect x="840" y="720" width="60" height="60" fill="#a16207"/><rect x="840" y="780" width="60" height="60" fill="#d6b86a"/><rect x="900" y="0" width="60" height="60" fill="#d6b86a"/><rect x="900" y="60" width="60" height="60" fill="#a16207"/><rect x="900" y="120" width="60" height="60" fill="#d6b86a"/><rect x="900" y="180" width="60" height="60" fill="#a16207"/><rect x="900" y="240" width="60" height="60" fill="#d6b86a"/><rect x="900" y="300" width="60" height="60" fill="#a16207"/><rect x="900" y="360" width="60" height="60" fill="#d6b86a"/><rect x="900" y="420" width="60" height="60" fill="#a16207"/><rect x="900" y="480" width="60" height="60" fill="#d6b86a"/><rect x="900" y="540" width="60" height="60" fill="#a16207"/><rect x="900" y="600" width="60" height="60" fill="#d6b86a"/><rect x="900" y="660" width="60" height="60" fill="#a16207"/><rect x="900" y="720" width="60" height="60" fill="#d6b86a"/><rect x="900" y="780" width="60" height="60" fill="#a16207"/><rect x="960" y="0" width="60" height="60" fill="#a16207"/><rect x="960" y="60" width="60" height="60" fill="#d6b86a"/><rect x="960" y="120" width="60" height="60" fill="#a16207"/><rect x="960" y="180" width="60" height="60" fill="#d6b86a"/><rect x="960" y="240" width="60" height="60" fill="#a16207"/><rect x="960" y="300" width="60" height="60" fill="#d6b86a"/><rect x="960" y="360" width="60" height="60" fill="#a16207"/><rect x="960" y="420" width="60" height="60" fill="#d6b86a"/><rect x="960" y="480" width="60" height="60" fill="#a16207"/><rect x="960" y="540" width="60" height="60" fill="#d6b86a"/><rect x="960" y="600" width="60" height="60" fill="#a16207"/><rect x="960" y="660" width="60" height="60" fill="#d6b86a"/><rect x="960" y="720" width="60" height="60" fill="#a16207"/><rect x="960" y="780" width="60" height="60" fill="#d6b86a"/><rect x="1020" y="0" width="60" height="60" fill="#d6b86a"/><rect x="1020" y="60" width="60" height="60" fill="#a16207"/><rect x="1020" y="120" width="60" height="60" fill="#d6b86a"/><rect x="1020" y="180" width="60" height="60" fill="#a16207"/><rect x="1020" y="240" width="60" height="60" fill="#d6b86a"/><rect x="1020" y="300" width="60" height="60" fill="#a16207"/><rect x="1020" y="360" width="60" height="60" fill="#d6b86a"/><rect x="1020" y="420" width="60" height="60" fill="#a16207"/><rect x="1020" y="480" width="60" height="60" fill="#d6b86a"/><rect x="1020" y="540" width="60" height="60" fill="#a16207"/><rect x="1020" y="600" width="60" height="60" fill="#d6b86a"/><rect x="1020" y="660" width="60" height="60" fill="#a16207"/><rect x="1020" y="720" width="60" height="60" fill="#d6b86a"/><rect x="1020" y="780" width="60" height="60" fill="#a16207"/><rect x="1080" y="0" width="60" height="60" fill="#a16207"/><rect x="1080" y="60" width="60" height="60" fill="#d6b86a"/><rect x="1080" y="120" width="60" height="60" fill="#a16207"/><rect x="1080" y="180" width="60" height="60" fill="#d6b86a"/><rect x="1080" y="240" width="60" height="60" fill="#a16207"/><rect x="1080" y="300" width="60" height="60" fill="#d6b86a"/><rect x="1080" y="360" width="60" height="60" fill="#a16207"/><rect x="1080" y="420" width="60" height="60" fill="#d6b86a"/><rect x="1080" y="480" width="60" height="60" fill="#a16207"/><rect x="1080" y="540" width="60" height="60" fill="#d6b86a"/><rect x="1080" y="600" width="60" height="60" fill="#a16207"/><rect x="1080" y="660" width="60" height="60" fill="#d6b86a"/><rect x="1080" y="720" width="60" height="60" fill="#a16207"/><rect x="1080" y="780" width="60" height="60" fill="#d6b86a"/><rect x="1140" y="0" width="60" height="60" fill="#d6b86a"/><rect x="1140" y="60" width="60" height="60" fill="#a16207"/><rect x="1140" y="120" width="60" height="60" fill="#d6b86a"/><rect x="1140" y="180" width="60" height="60" fill="#a16207"/><rect x="1140" y="240" width="60" height="60" fill="#d6b86a"/><rect x="1140" y="300" width="60" height="60" fill="#a16207"/><rect x="1140" y="360" width="60" height="60" fill="#d6b86a"/><rect x="1140" y="420" width="60" height="60" fill="#a16207"/><rect x="1140" y="480" width="60" height="60" fill="#d6b86a"/><rect x="1140" y="540" width="60" height="60" fill="#a16207"/><rect x="1140" y="600" width="60" height="60" fill="#d6b86a"/><rect x="1140" y="660" width="60" height="60" fill="#a16207"/><rect x="1140" y="720" width="60" height="60" fill="#d6b86a"/><rect x="1140" y="780" width="60" height="60" fill="#a16207"/><circle cx="600" cy="400" r="250" fill="#fef3c7" opacity="0.92"/><ellipse cx="600" cy="440" rx="190" ry="70" fill="#b45309"/><path d="M410 440 Q600 260 790 440" fill="#d6b86a"/><text x="600" y="330" font-family="sans-serif" font-size="44" font-weight="800" fill="#78350f" text-anchor="middle">Anyaman Bambu</text></svg>
