<svg xmlns="http://www.w3.org/2000/svg" viewBox="0 0 1200 800" width="1200" height="800"><defs><linearGradient id="s" x1="0" y1="0" x2="0" y2="1"><stop offset="0" stop-color="#0f5e52"/><stop offset="1" stop-color="#f6d59a"/></linearGradient></defs><rect width="1200" height="800" fill="url(#s)"/><circle cx="880" cy="250" r="112.0" fill="#fde68a" opacity="0.25"/><circle cx="880" cy="250" r="70" fill="#fde68a" opacity="1"/><path d="M0 800 L0 427 Q50 400.0 100 425 Q150 400.0 200 425 Q250 382.0 300 407 Q350 382.0 400 420 Q450 358.0 500 383 Q550 358.0 600 388 Q650 363.0 700 411 Q750 386.0 800 414 Q850 367.0 900 392 Q950 367.0 1000 417 Q1050 367.0 1100 392 Q1150 367.0 1200 428 Q1250 368.0 1300 393 L1200 800Z" fill="#86c5a4"/><path d="M0 800 L0 465 Q50 423.0 100 443 Q150 423.0 200 446 Q250 426.0 300 472 Q350 437.0 400 457 Q450 422.0 500 442 Q550 422.0 600 450 Q650 420.0 700 440 Q750 420.0 800 443 Q850 423.0 900 476 Q950 422.0 1000 442 Q1050 422.0 1100 480 Q1150 430.0 1200 450 Q1250 430.0 1300 464 L1200 800Z" fill="#4f9d7a"/><path d="M0 520 Q600 502 1200 520 L1200 800 L0 800Z" fill="#65a30d"/><path d="M0 555 Q600 537 1200 555 L1200 800 L0 800Z" fill="#4d7c0f"/><path d="M0 590 Q600 572 1200 590 L1200 800 L0 800Z" fill="#65a30d"/><path d="M0 625 Q600 607 1200 625 L1200 800 L0 800Z" fill="#4d7c0f"/><path d="M0 660 Q600 642 1200 660 L1200 800 L0 800Z" fill="#65a30d"/><path d="M0 695 Q600 677 1200 695 L1200 800 L0 800Z" fill="#4d7c0f"/><path d="M0 730 Q600 712 1200 730 L1200 800 L0 800Z" fill="#65a30d"/><path d="M0 765 Q600 747 1200 765 L1200 800 L0 800Z" fill="#4d7c0f"/><rect x="160" y="390" width="120" height="90" fill="#fef3c7"/><path d="M148 390 L220.0 327.0 L292 390Z" fill="#b45309"/><rect x="208.0" y="430.5" width="24.0" height="49.50000000000001" fill="#78350f"/><rect x="174.4" y="412.5" width="19.2" height="18.0" fill="#fef3c7"/><rect x="246.39999999999998" y="412.5" width="19.2" height="18.0" fill="#fef3c7"/><rect x="330" y="410" width="100" height="75" fill="#fde68a"/><path d="M318 410 L380.0 357.5 L442 410Z" fill="#9a3412"/><rect x="370.0" y="443.75" width="20.0" height="41.25" fill="#78350f"/><rect x="342.0" y="428.75" width="16.0" height="15.0" fill="#fef3c7"/><rect x="402.0" y="428.75" width="16.0" height="15.0" fill="#fef3c7"/><rect x="820" y="400" width="110" height="85" fill="#fff7ed"/><path d="M808 400 L875.0 340.5 L942 400Z" fill="#b45309"/><rect x="864.0" y="438.25" width="22.0" height="46.75000000000001" fill="#78350f"/><rect x="833.2" y="421.25" width="17.6" height="17.0" fill="#fef3c7"/><rect x="899.2" y="421.25" width="17.6" height="17.0" fill="#fef3c7"/><path d="M90 520 q-8.8 -121.00000000000001 13.200000000000001 -220.00000000000003" stroke="#5b4636" stroke-width="9.9" fill="none" stroke-linecap="round"/><path d="M103.2 300.0 Q56.68521527109754 267.0 10 316" stroke="#166534" stroke-width="11.0" fill="none" stroke-linecap="round"/><path d="M103.2 300.0 Q78.45000000000002 267.0 54 290" stroke="#166534" stroke-width="11.0" fill="none" stroke-linecap="round"/><path d="M103.2 300.0 Q127.95000000000002 267.0 153 290" stroke="#166534" stroke-width="11.0" fill="none" stroke-linecap="round"/><path d="M103.2 300.0 Q149.7147847289025 267.0 196 316" stroke="#166534" stroke-width="11.0" fill="none" stroke-linecap="round"/><path d="M103.2 300.0 Q103.2 267.0 103 284" stroke="#166534" stroke-width="11.0" fill="none" stroke-linecap="round"/><path d="M103.2 300.0 Q149.7147847289025 267.0 196 350" stroke="#166534" stroke-width="11.0" fill="none" stroke-linecap="round"/><path d="M560 520 q-7.2 -99.0 10.8 -180.0" stroke="#5b4636" stroke-width="8.1" fill="none" stroke-linecap="round"/><path d="M570.8 340.0 Q532.7424488581706 313.0 495 353" stroke="#166534" stroke-width="9.0" fill="none" stroke-linecap="round"/><path d="M570.8 340.0 Q550.55 313.0 530 332" stroke="#166534" stroke-width="9.0" fill="none" stroke-linecap="round"/><path d="M570.8 340.0 Q591.05 313.0 611 332" stroke="#166534" stroke-width="9.0" fill="none" stroke-linecap="round"/><path d="M570.8 340.0 Q608.8575511418293 313.0 647 353" stroke="#166534" stroke-width="9.0" fill="none" stroke-linecap="round"/><path d="M570.8 340.0 Q570.8 313.0 571 326" stroke="#166534" stroke-width="9.0" fill="none" stroke-linecap="round"/><path d="M570.8 340.0 Q608.8575511418293 313.0 647 381" stroke="#166534" stroke-width="9.0" fill="none" stroke-linecap="round"/><path d="M1080 520 q-9.6 -132.0 14.399999999999999 -240.0" stroke="#5b4636" stroke-width="10.799999999999999" fill="none" stroke-linecap="round"/><path d="M1094.4 280.0 Q1043.6565984775611 244.0 993 298" stroke="#166534" stroke-width="12.0" fill="none" stroke-linecap="round"/><path d="M1094.4 280.0 Q1067.4 244.0 1040 269" stroke="#166534" stroke-width="12.0" fill="none" stroke-linecap="round"/><path d="M1094.4 280.0 Q1121.4 244.0 1148 269" stroke="#166534" stroke-width="12.0" fill="none" stroke-linecap="round"/><path d="M1094.4 280.0 Q1145.143401522439 244.0 1196 298" stroke="#166534" stroke-width="12.0" fill="none" stroke-linecap="round"/><path d="M1094.4 280.0 Q1094.4 244.0 1094 262" stroke="#166534" stroke-width="12.0" fill="none" stroke-linecap="round"/><path d="M1094.4 280.0 Q1145.143401522439 244.0 1196 334" stroke="#166534" stroke-width="12.0" fill="none" stroke-linecap="round"/><circle cx="700" cy="616.0" r="16.8" fill="#a16207"/><rect x="680.8" y="634.0" width="38.4" height="54.0" rx="12.0" fill="#0f766e"/><rect x="685.6" y="685.6" width="12.0" height="14.399999999999999" fill="#1f2937"/><rect x="702.4" y="685.6" width="12.0" height="14.399999999999999" fill="#1f2937"/><path d="M664.0 608.8 L700 580.0 L736.0 608.8Z" fill="#d6b86a"/><circle cx="780" cy="620.0" r="14.0" fill="#a16207"/><rect x="764.0" y="635.0" width="32.0" height="45.0" rx="10.0" fill="#b45309"/><rect x="768.0" y="678.0" width="10.0" height="12.0" fill="#1f2937"/><rect x="782.0" y="678.0" width="10.0" height="12.0" fill="#1f2937"/><path d="M750.0 614.0 L780 590.0 L810.0 614.0Z" fill="#d6b86a"/></svg>
